<svg width="42" height="42" viewBox="0 0 42 42" fill="none" xmlns="http://www.w3.org/2000/svg">
<g id="Group">
<path id="Vector" d="M39.9382 4.19793C39.2534 3.53058 38.348 3.1773 37.3926 3.20136C35.5048 3.25003 33.969 4.8502 33.969 6.76866V15.6675C32.7321 15.2322 31.2986 15.5082 30.3113 16.4957L21.5413 25.2656C21.3447 25.4622 21.1647 25.6709 21.0002 25.8892C20.8356 25.6708 20.6555 25.4622 20.459 25.2655L11.6891 16.4956C10.7018 15.5082 9.26827 15.2322 8.03131 15.6674V6.71584C8.03131 5.75959 7.65412 4.86536 6.96919 4.19793C6.28442 3.53058 5.37957 3.17714 4.42362 3.20136C2.53587 3.25003 1 4.8502 1 6.76866V19.9109C1 21.1098 1.33907 22.2788 1.98048 23.2914L8.44014 33.4901C9.03319 34.4265 9.34671 35.5072 9.34671 36.6155V39.8275C9.34671 40.4747 9.8714 40.9994 10.5186 40.9994H31.4819C32.1291 40.9994 32.6538 40.4747 32.6538 39.8275V36.6155C32.6538 35.5072 32.9672 34.4265 33.5603 33.4902L40.0199 23.2915C40.6613 22.2788 41.0003 21.1098 41.0003 19.9109V6.71584C41.0003 5.75966 40.6231 4.86544 39.9382 4.19793ZM10.4202 32.236L3.96049 22.0373C3.55697 21.4003 3.34377 20.665 3.34377 19.9109V6.76866C3.34377 6.10982 3.85526 5.5606 4.48401 5.54443C4.80323 5.53669 5.10527 5.65412 5.33347 5.87646C5.56176 6.09896 5.68754 6.39709 5.68754 6.71584V19.0206C5.68754 19.0532 5.6898 19.0852 5.69238 19.117C5.72504 19.9717 6.06621 20.8165 6.71723 21.4675L10.9917 25.742C11.4493 26.1997 12.1913 26.1997 12.649 25.742C13.1067 25.2844 13.1067 24.5424 12.649 24.0847L8.37451 19.8102C7.91763 19.3533 7.91763 18.6098 8.37451 18.153C8.83155 17.6961 9.57491 17.6961 10.0319 18.153L18.8016 26.9227C19.4637 27.5849 19.8283 28.4687 19.8283 29.4113V38.6556H11.6904V36.6155C11.6904 35.0625 11.2512 33.5481 10.4202 32.236ZM38.6566 19.9109C38.6566 20.665 38.4433 21.4003 38.0397 22.0373L31.5802 32.236C30.7491 33.548 30.3099 35.0625 30.3099 36.6155V38.6556H22.172V29.4113C22.172 28.4687 22.5367 27.5849 23.1986 26.9228L31.9685 18.1529C32.4256 17.696 33.1689 17.696 33.6258 18.1529C34.0805 18.5894 34.0805 19.3739 33.6255 19.8105L29.3513 24.0875C28.8939 24.5453 28.8941 25.2872 29.3519 25.7447C29.8095 26.2022 30.5515 26.2021 31.0092 25.7442L35.2831 21.4675C35.9293 20.8213 36.2919 19.9677 36.311 19.057C36.3114 19.0448 36.3128 19.0329 36.3128 19.0206V6.76866C36.3128 6.10982 36.8243 5.5606 37.453 5.54443C37.7706 5.53576 38.0742 5.65412 38.3025 5.87646C38.5308 6.09904 38.6566 6.39717 38.6566 6.71592V19.9109Z" fill="#4640DE" stroke="#4640DE" stroke-width="0.5"/>
<path id="Vector_2" d="M12.8338 11.3305C12.8839 11.3849 13.0564 11.5549 16.3399 14.7566C18.0524 16.4266 19.992 18.3179 20.1482 18.4754C20.3689 18.705 20.6738 18.8352 20.993 18.8352C21.3166 18.8353 21.6257 18.7014 21.8471 18.4659C22.0141 18.2939 23.8073 16.5484 25.3903 15.0074C28.1619 12.3094 29.0425 11.4503 29.1527 11.3307C29.1781 11.3033 29.2019 11.2748 29.2241 11.2455C33.0122 6.43712 29.5623 1.03856 24.6727 1.01536C23.3457 1.03583 22.087 1.49146 20.9811 2.34349C18.1334 0.188477 15.0002 0.887779 13.146 2.60232C10.6446 4.88742 10.5206 8.70386 12.7995 11.2916C12.8107 11.3048 12.8221 11.3178 12.8338 11.3305ZM14.7373 4.32312C15.9306 3.21944 18.0698 2.66568 20.1703 4.73711C20.3931 4.95672 20.6956 5.07789 21.0071 5.07445C21.3199 5.0707 21.6182 4.94211 21.8356 4.71726C23.1364 3.37194 25.3851 2.67279 27.2487 4.31617C28.4665 5.39016 29.2331 7.45752 27.4089 9.7627C27.1145 10.0582 25.2589 11.8646 23.7554 13.3281C22.4286 14.6197 21.5514 15.474 20.9918 16.0206C20.1937 15.2394 15.165 10.3402 14.5622 9.7459C13.3699 8.30253 12.9199 6.00384 14.7373 4.32312Z" fill="#4640DE" stroke="#4640DE" stroke-width="0.5"/>
</g>
</svg>
